# 3ds Max Wavefront OBJ Exporter v0.97b - (c)2007 guruware
# File Created: 06.05.2013 12:50:28

mtllib barrel.mtl

#
# object Cylinder001
#

v  -46.4630 -19.8119 16.6242
v  -46.4630 -12.9313 22.3977
v  -46.4630 -4.4910 25.4697
v  -46.4630 -25.8626 0.0000
v  -46.4630 4.4910 25.4697
v  -46.4630 12.9313 22.3977
v  -46.4630 24.3029 8.8455
v  -46.4630 19.8119 16.6242
v  -46.4630 25.8626 -0.0000
v  -46.4630 24.3029 -8.8455
v  -46.4630 12.9313 -22.3977
v  -46.4630 19.8119 -16.6242
v  -46.4630 4.4910 -25.4697
v  -46.4630 -4.4910 -25.4697
v  -46.4630 -19.8119 -16.6242
v  -46.4630 -12.9313 -22.3977
v  -46.4630 -24.3029 -8.8455
v  -46.4630 -24.3029 8.8456
v  -29.8761 -46.1817 -16.8088
v  -29.8761 -49.1456 -0.0000
v  -29.8761 -37.6477 -31.5902
v  -29.8761 -24.5728 -42.5613
v  -29.8761 -8.5340 -48.3989
v  -29.8761 8.5340 -48.3989
v  -29.8761 24.5728 -42.5613
v  -29.8761 37.6477 -31.5902
v  -29.8761 46.1817 -16.8088
v  -29.8761 49.1456 -0.0000
v  -29.8761 46.1817 16.8088
v  -29.8761 37.6477 31.5902
v  -29.8761 24.5728 42.5613
v  -29.8761 8.5341 48.3989
v  -29.8761 -8.5340 48.3989
v  -29.8761 -24.5728 42.5613
v  -29.8761 -37.6477 31.5902
v  -29.8761 -46.1817 16.8088
v  -0.1205 -54.3054 -20.3150
v  -0.1205 -57.7906 -0.0000
v  -0.1205 -44.2702 -38.1796
v  -0.1205 -28.8953 -51.4393
v  -0.1205 -10.0352 -58.4946
v  -0.1205 10.0352 -58.4946
v  -0.1205 28.8953 -51.4393
v  -0.1205 44.2702 -38.1796
v  -0.1205 54.3054 -20.3150
v  -0.1205 57.7906 -0.0000
v  -0.1205 54.3054 20.3149
v  -0.1205 44.2702 38.1796
v  -0.1205 28.8954 51.4393
v  -0.1205 10.0353 58.4946
v  -0.1205 -10.0352 58.4946
v  -0.1205 -28.8953 51.4393
v  -0.1205 -44.2702 38.1796
v  -0.1205 -54.3054 20.3150
v  35.7428 -52.8065 -19.2200
v  35.7428 -56.1955 0.0000
v  35.7428 -43.0483 -36.1218
v  35.7428 -28.0978 -48.6668
v  35.7428 -9.7582 -55.3418
v  35.7428 9.7583 -55.3418
v  35.7428 28.0978 -48.6668
v  35.7428 43.0483 -36.1218
v  35.7428 52.8066 -19.2200
v  35.7428 56.1956 -0.0000
v  35.7428 52.8066 19.2200
v  35.7428 43.0483 36.1218
v  35.7428 28.0978 48.6668
v  35.7428 9.7583 55.3418
v  35.7428 -9.7582 55.3418
v  35.7428 -28.0977 48.6668
v  35.7428 -43.0483 36.1218
v  35.7428 -52.8065 19.2201
v  107.1835 -29.6641 -10.6403
v  107.1835 -31.5679 0.0000
v  107.1835 -24.1824 -19.9971
v  107.1835 -15.7839 -26.9421
v  107.1835 -5.4817 -30.6374
v  107.1835 5.4817 -30.6374
v  107.1835 15.7840 -26.9420
v  107.1835 24.1824 -19.9971
v  107.1835 29.6641 -10.6403
v  107.1835 31.5679 -0.0000
v  107.1835 29.6641 10.6402
v  107.1835 24.1824 19.9971
v  107.1835 15.7840 26.9421
v  107.1835 5.4817 30.6374
v  107.1835 -5.4817 30.6374
v  107.1835 -15.7839 26.9421
v  107.1835 -24.1824 19.9972
v  107.1835 -29.6641 10.6403
v  120.0000 -30.8884 -11.2425
v  120.0000 -32.8707 0.0000
v  120.0000 -25.1804 -21.1289
v  120.0000 -16.4354 -28.4669
v  120.0000 -5.7079 -32.3714
v  120.0000 5.7080 -32.3714
v  120.0000 16.4354 -28.4669
v  120.0000 25.1805 -21.1289
v  120.0000 30.8884 -11.2425
v  120.0000 32.8708 -0.0000
v  120.0000 30.8884 11.2425
v  120.0000 25.1805 21.1289
v  120.0000 16.4354 28.4669
v  120.0000 5.7080 32.3714
v  120.0000 -5.7079 32.3714
v  120.0000 -16.4353 28.4669
v  120.0000 -25.1804 21.1289
v  120.0000 -30.8884 11.2425
v  16.7794 -28.8988 -0.0000
v  16.7794 -27.1560 -9.8840
v  16.7794 -22.1377 -18.5758
v  16.7794 -22.1377 18.5758
v  16.7794 -14.4494 -25.0271
v  16.7794 -5.0182 -28.4598
v  16.7794 14.4494 -25.0271
v  16.7794 5.0183 -28.4598
v  16.7794 22.1378 -18.5758
v  16.7794 27.1560 -9.8840
v  16.7794 27.1560 9.8840
v  16.7794 28.8989 -0.0000
v  16.7794 22.1378 18.5758
v  16.7794 14.4494 25.0271
v  16.7794 -5.0182 28.4598
v  16.7794 5.0183 28.4598
v  16.7794 -14.4494 25.0271
v  16.7794 -27.1560 9.8840
v  120.0000 -27.1560 -9.8840
v  120.0000 -28.8988 -0.0000
v  120.0000 -22.1378 -18.5758
v  120.0000 -14.4494 -25.0271
v  120.0000 -5.0182 -28.4598
v  120.0000 5.0182 -28.4598
v  120.0000 14.4494 -25.0271
v  120.0000 22.1378 -18.5758
v  120.0000 27.1560 -9.8840
v  120.0000 28.8988 -0.0000
v  120.0000 27.1560 9.8840
v  120.0000 22.1378 18.5758
v  120.0000 14.4494 25.0271
v  120.0000 5.0183 28.4598
v  120.0000 -5.0182 28.4598
v  120.0000 -14.4494 25.0271
v  120.0000 -22.1377 18.5758
v  120.0000 -27.1560 9.8840
# 144 vertices

vn -1.0000 -0.0000 0.0000
vn -0.8145 -0.5802 0.0000
vn -0.8145 -0.5452 -0.1984
vn -0.5657 -0.7757 -0.2799
vn -0.5627 -0.8267 0.0005
vn -0.8145 -0.4445 -0.3730
vn -0.5720 -0.6303 -0.5250
vn -0.8145 -0.2901 -0.5025
vn -0.5785 -0.4098 -0.7052
vn -0.8145 -0.1008 -0.5714
vn -0.5823 -0.1417 -0.8005
vn -0.8145 0.1008 -0.5714
vn -0.5816 0.1427 -0.8009
vn -0.8145 0.2901 -0.5025
vn -0.5767 0.4109 -0.7061
vn -0.8145 0.4445 -0.3730
vn -0.5698 0.6313 -0.5260
vn -0.8145 0.5452 -0.1984
vn -0.5643 0.7763 -0.2809
vn -0.8145 0.5802 -0.0000
vn -0.5627 0.8267 -0.0005
vn -0.8145 0.5452 0.1984
vn -0.5657 0.7757 0.2799
vn -0.8145 0.4445 0.3730
vn -0.5720 0.6303 0.5250
vn -0.8145 0.2901 0.5025
vn -0.5785 0.4098 0.7052
vn -0.8145 0.1008 0.5714
vn -0.5823 0.1417 0.8005
vn -0.8145 -0.1008 0.5714
vn -0.5816 -0.1427 0.8009
vn -0.8145 -0.2901 0.5025
vn -0.5767 -0.4109 0.7061
vn -0.8145 -0.4445 0.3730
vn -0.5698 -0.6313 0.5260
vn -0.8145 -0.5452 0.1984
vn -0.5643 -0.7763 0.2809
vn -0.1156 -0.9351 -0.3349
vn -0.1168 -0.9932 -0.0000
vn -0.1153 -0.7660 -0.6324
vn -0.1161 -0.5027 -0.8567
vn -0.1175 -0.1752 -0.9775
vn -0.1191 0.1751 -0.9773
vn -0.1200 0.5024 -0.8563
vn -0.1198 0.7656 -0.6321
vn -0.1185 0.9348 -0.3348
vn -0.1168 0.9932 0.0000
vn -0.1156 0.9351 0.3349
vn -0.1153 0.7660 0.6324
vn -0.1161 0.5027 0.8567
vn -0.1175 0.1752 0.9775
vn -0.1191 -0.1751 0.9773
vn -0.1200 -0.5024 0.8563
vn -0.1198 -0.7656 0.6321
vn -0.1185 -0.9348 0.3348
vn 0.1869 -0.9235 -0.3351
vn 0.1848 -0.9828 -0.0004
vn 0.1935 -0.7528 -0.6291
vn 0.2016 -0.4915 -0.8472
vn 0.2074 -0.1710 -0.9632
vn 0.2081 0.1701 -0.9632
vn 0.2034 0.4909 -0.8471
vn 0.1955 0.7526 -0.6288
vn 0.1882 0.9235 -0.3343
vn 0.1848 0.9828 0.0004
vn 0.1869 0.9235 0.3351
vn 0.1935 0.7528 0.6291
vn 0.2016 0.4915 0.8472
vn 0.2074 0.1710 0.9632
vn 0.2081 -0.1701 0.9632
vn 0.2034 -0.4909 0.8471
vn 0.1955 -0.7526 0.6288
vn 0.1882 -0.9235 0.3343
vn 0.1153 -0.9324 -0.3425
vn 0.1178 -0.9930 0.0002
vn 0.1105 -0.7584 -0.6424
vn 0.1058 -0.4936 -0.8632
vn 0.1033 -0.1710 -0.9799
vn 0.1041 0.1713 -0.9797
vn 0.1079 0.4936 -0.8630
vn 0.1129 0.7581 -0.6422
vn 0.1168 0.9322 -0.3427
vn 0.1178 0.9930 -0.0002
vn 0.1153 0.9324 0.3425
vn 0.1105 0.7584 0.6424
vn 0.1058 0.4936 0.8632
vn 0.1033 0.1710 0.9799
vn 0.1041 -0.1713 0.9797
vn 0.1079 -0.4936 0.8630
vn 0.1129 -0.7581 0.6422
vn 0.1168 -0.9322 0.3427
vn -0.1047 -0.9339 -0.3418
vn -0.1017 -0.9948 0.0005
vn -0.1142 -0.7589 -0.6411
vn -0.1258 -0.4933 -0.8607
vn -0.1340 -0.1705 -0.9762
vn -0.1351 0.1714 -0.9759
vn -0.1285 0.4935 -0.8602
vn -0.1174 0.7585 -0.6410
vn -0.1068 0.9334 -0.3425
vn -0.1017 0.9948 -0.0005
vn -0.1047 0.9339 0.3418
vn -0.1142 0.7589 0.6411
vn -0.1258 0.4933 0.8607
vn -0.1340 0.1705 0.9762
vn -0.1351 -0.1714 0.9759
vn -0.1285 -0.4935 0.8602
vn -0.1174 -0.7585 0.6410
vn -0.1068 -0.9334 0.3425
vn 1.0000 0.0000 0.0000
vn 1.0000 0.0000 -0.0000
vn 1.0000 -0.0000 0.0000
vn 1.0000 -0.0000 -0.0000
vn 0.0000 0.9848 0.1736
vn 0.0000 0.8660 0.5000
vn 0.0000 0.6428 0.7660
vn -0.0000 0.3420 0.9397
vn -0.0000 0.0000 1.0000
vn -0.0000 -0.3420 0.9397
vn -0.0000 -0.6428 0.7660
vn -0.0000 -0.8660 0.5000
vn -0.0000 -0.9848 0.1736
vn -0.0000 -0.9848 -0.1736
vn -0.0000 -0.8660 -0.5000
vn -0.0000 -0.6428 -0.7660
vn 0.0000 -0.3420 -0.9397
vn 0.0000 0.0000 -1.0000
vn 0.0000 0.3420 -0.9397
vn 0.0000 0.6428 -0.7660
vn 0.0000 0.8660 -0.5000
vn 0.0000 0.9848 -0.1736
# 131 vertex normals

vt 0.1953 0.0000 -0.3473
vt 0.0874 0.0000 -0.6527
vt 0.0292 0.0000 -0.8794
vt 0.7500 0.0000 1.0000
vt 0.0278 0.0000 -1.0000
vt 0.0833 0.0000 -1.0000
vt 0.3325 0.0000 -0.6527
vt 0.1891 0.0000 -0.8794
vt 0.4960 0.0000 -0.3473
vt 0.6600 0.0000 -0.0000
vt 0.9126 0.0000 0.6527
vt 0.8047 0.0000 0.3473
vt 0.9708 0.0000 0.8794
vt 0.9722 0.0000 1.0000
vt 0.8611 0.0000 1.0000
vt 0.9167 0.0000 1.0000
vt 0.8056 0.0000 1.0000
vt 0.3400 0.0000 -0.0000
vt 0.8056 0.2000 1.0000
vt 0.7500 0.2000 1.0000
vt 0.8611 0.2000 1.0000
vt 0.9167 0.2000 1.0000
vt 0.9722 0.2000 1.0000
vt -0.0278 0.0000 1.0000
vt 0.0278 0.0000 1.0000
vt 0.0278 0.2000 1.0000
vt -0.0278 0.2000 1.0000
vt 0.0833 0.0000 1.0000
vt 0.0833 0.2000 1.0000
vt 0.1389 0.0000 1.0000
vt 0.1389 0.2000 1.0000
vt 0.1944 0.0000 1.0000
vt 0.1944 0.2000 1.0000
vt 0.2500 0.0000 1.0000
vt 0.2500 0.2000 1.0000
vt 0.3056 0.0000 1.0000
vt 0.3056 0.2000 1.0000
vt 0.3611 0.0000 1.0000
vt 0.3611 0.2000 1.0000
vt 0.4167 0.0000 1.0000
vt 0.4167 0.2000 1.0000
vt 0.4722 0.0000 1.0000
vt 0.4722 0.2000 1.0000
vt 0.5278 0.0000 1.0000
vt 0.5278 0.2000 1.0000
vt 0.5833 0.0000 1.0000
vt 0.5833 0.2000 1.0000
vt 0.6389 0.0000 1.0000
vt 0.6389 0.2000 1.0000
vt 0.6944 0.0000 1.0000
vt 0.6944 0.2000 1.0000
vt 0.8056 0.4000 1.0000
vt 0.7500 0.4000 1.0000
vt 0.8611 0.4000 1.0000
vt 0.9167 0.4000 1.0000
vt 0.9722 0.4000 1.0000
vt 0.0278 0.4000 1.0000
vt -0.0278 0.4000 1.0000
vt 0.0833 0.4000 1.0000
vt 0.1389 0.4000 1.0000
vt 0.1944 0.4000 1.0000
vt 0.2500 0.4000 1.0000
vt 0.3056 0.4000 1.0000
vt 0.3611 0.4000 1.0000
vt 0.4167 0.4000 1.0000
vt 0.4722 0.4000 1.0000
vt 0.5278 0.4000 1.0000
vt 0.5833 0.4000 1.0000
vt 0.6389 0.4000 1.0000
vt 0.6944 0.4000 1.0000
vt 0.8056 0.6000 1.0000
vt 0.7500 0.6000 1.0000
vt 0.8611 0.6000 1.0000
vt 0.9167 0.6000 1.0000
vt 0.9722 0.6000 1.0000
vt 0.0278 0.6000 1.0000
vt -0.0278 0.6000 1.0000
vt 0.0833 0.6000 1.0000
vt 0.1389 0.6000 1.0000
vt 0.1944 0.6000 1.0000
vt 0.2500 0.6000 1.0000
vt 0.3056 0.6000 1.0000
vt 0.3611 0.6000 1.0000
vt 0.4167 0.6000 1.0000
vt 0.4722 0.6000 1.0000
vt 0.5278 0.6000 1.0000
vt 0.5833 0.6000 1.0000
vt 0.6389 0.6000 1.0000
vt 0.6944 0.6000 1.0000
vt 0.8056 0.8000 1.0000
vt 0.7500 0.8000 1.0000
vt 0.8611 0.8000 1.0000
vt 0.9167 0.8000 1.0000
vt 0.9722 0.8000 1.0000
vt 0.0278 0.8000 1.0000
vt -0.0278 0.8000 1.0000
vt 0.0833 0.8000 1.0000
vt 0.1389 0.8000 1.0000
vt 0.1944 0.8000 1.0000
vt 0.2500 0.8000 1.0000
vt 0.3056 0.8000 1.0000
vt 0.3611 0.8000 1.0000
vt 0.4167 0.8000 1.0000
vt 0.4722 0.8000 1.0000
vt 0.5278 0.8000 1.0000
vt 0.5833 0.8000 1.0000
vt 0.6389 0.8000 1.0000
vt 0.6944 0.8000 1.0000
vt 0.8056 1.0000 1.0000
vt 0.7500 1.0000 1.0000
vt 0.8611 1.0000 1.0000
vt 0.9167 1.0000 1.0000
vt 0.9722 1.0000 1.0000
vt 0.0278 1.0000 1.0000
vt -0.0278 1.0000 1.0000
vt 0.0833 1.0000 1.0000
vt 0.1389 1.0000 1.0000
vt 0.1944 1.0000 1.0000
vt 0.2500 1.0000 1.0000
vt 0.3056 1.0000 1.0000
vt 0.3611 1.0000 1.0000
vt 0.4167 1.0000 1.0000
vt 0.4722 1.0000 1.0000
vt 0.5278 1.0000 1.0000
vt 0.5833 1.0000 1.0000
vt 0.6389 1.0000 1.0000
vt 0.6944 1.0000 1.0000
vt 0.1953 1.0000 -0.3473
vt 0.9126 1.0000 0.6527
vt 0.9708 1.0000 0.8794
vt 0.8047 1.0000 0.3473
vt 0.6600 1.0000 -0.0000
vt 0.3325 1.0000 -0.6527
vt 0.4960 1.0000 -0.3473
vt 0.1891 1.0000 -0.8794
vt 0.0833 1.0000 -1.0000
vt 0.0292 1.0000 -0.8794
vt 0.0278 1.0000 -1.0000
vt 0.0874 1.0000 -0.6527
# 139 texture coords

g Cylinder001
usemtl 01___Default
s 1
f 1/1/1 2/2/1 3/3/1 4/4/1 
f 3/3/1 5/5/1 6/6/1 7/7/1 
f 6/6/1 8/8/1 7/7/1 
f 7/7/1 9/9/1 10/10/1 11/11/1 
f 10/10/1 12/12/1 11/11/1 
f 11/11/1 13/13/1 14/14/1 15/15/1 
f 14/14/1 16/16/1 15/15/1 
f 7/7/1 11/11/1 15/15/1 3/3/1 
f 15/15/1 17/17/1 4/4/1 3/3/1 
f 18/18/1 1/1/1 4/4/1 
s 8
f 4/4/2 17/17/3 19/19/4 20/20/5 
f 17/17/3 15/15/6 21/21/7 19/19/4 
f 15/15/6 16/16/8 22/22/9 21/21/7 
f 16/16/8 14/14/10 23/23/11 22/22/9 
f 14/24/10 13/25/12 24/26/13 23/27/11 
f 13/25/12 11/28/14 25/29/15 24/26/13 
f 11/28/14 12/30/16 26/31/17 25/29/15 
f 12/30/16 10/32/18 27/33/19 26/31/17 
f 10/32/18 9/34/20 28/35/21 27/33/19 
f 9/34/20 7/36/22 29/37/23 28/35/21 
f 7/36/22 8/38/24 30/39/25 29/37/23 
f 8/38/24 6/40/26 31/41/27 30/39/25 
f 6/40/26 5/42/28 32/43/29 31/41/27 
f 5/42/28 3/44/30 33/45/31 32/43/29 
f 3/44/30 2/46/32 34/47/33 33/45/31 
f 2/46/32 1/48/34 35/49/35 34/47/33 
f 1/48/34 18/50/36 36/51/37 35/49/35 
f 18/50/36 4/4/2 20/20/5 36/51/37 
f 20/20/5 19/19/4 37/52/38 38/53/39 
f 19/19/4 21/21/7 39/54/40 37/52/38 
f 21/21/7 22/22/9 40/55/41 39/54/40 
f 22/22/9 23/23/11 41/56/42 40/55/41 
f 23/27/11 24/26/13 42/57/43 41/58/42 
f 24/26/13 25/29/15 43/59/44 42/57/43 
f 25/29/15 26/31/17 44/60/45 43/59/44 
f 26/31/17 27/33/19 45/61/46 44/60/45 
f 27/33/19 28/35/21 46/62/47 45/61/46 
f 28/35/21 29/37/23 47/63/48 46/62/47 
f 29/37/23 30/39/25 48/64/49 47/63/48 
f 30/39/25 31/41/27 49/65/50 48/64/49 
f 31/41/27 32/43/29 50/66/51 49/65/50 
f 32/43/29 33/45/31 51/67/52 50/66/51 
f 33/45/31 34/47/33 52/68/53 51/67/52 
f 34/47/33 35/49/35 53/69/54 52/68/53 
f 35/49/35 36/51/37 54/70/55 53/69/54 
f 36/51/37 20/20/5 38/53/39 54/70/55 
f 38/53/39 37/52/38 55/71/56 56/72/57 
f 37/52/38 39/54/40 57/73/58 55/71/56 
f 39/54/40 40/55/41 58/74/59 57/73/58 
f 40/55/41 41/56/42 59/75/60 58/74/59 
f 41/58/42 42/57/43 60/76/61 59/77/60 
f 42/57/43 43/59/44 61/78/62 60/76/61 
f 43/59/44 44/60/45 62/79/63 61/78/62 
f 44/60/45 45/61/46 63/80/64 62/79/63 
f 45/61/46 46/62/47 64/81/65 63/80/64 
f 46/62/47 47/63/48 65/82/66 64/81/65 
f 47/63/48 48/64/49 66/83/67 65/82/66 
f 48/64/49 49/65/50 67/84/68 66/83/67 
f 49/65/50 50/66/51 68/85/69 67/84/68 
f 50/66/51 51/67/52 69/86/70 68/85/69 
f 51/67/52 52/68/53 70/87/71 69/86/70 
f 52/68/53 53/69/54 71/88/72 70/87/71 
f 53/69/54 54/70/55 72/89/73 71/88/72 
f 54/70/55 38/53/39 56/72/57 72/89/73 
f 56/72/57 55/71/56 73/90/74 74/91/75 
f 55/71/56 57/73/58 75/92/76 73/90/74 
f 57/73/58 58/74/59 76/93/77 75/92/76 
f 58/74/59 59/75/60 77/94/78 76/93/77 
f 59/77/60 60/76/61 78/95/79 77/96/78 
f 60/76/61 61/78/62 79/97/80 78/95/79 
f 61/78/62 62/79/63 80/98/81 79/97/80 
f 62/79/63 63/80/64 81/99/82 80/98/81 
f 63/80/64 64/81/65 82/100/83 81/99/82 
f 64/81/65 65/82/66 83/101/84 82/100/83 
f 65/82/66 66/83/67 84/102/85 83/101/84 
f 66/83/67 67/84/68 85/103/86 84/102/85 
f 67/84/68 68/85/69 86/104/87 85/103/86 
f 68/85/69 69/86/70 87/105/88 86/104/87 
f 69/86/70 70/87/71 88/106/89 87/105/88 
f 70/87/71 71/88/72 89/107/90 88/106/89 
f 71/88/72 72/89/73 90/108/91 89/107/90 
f 72/89/73 56/72/57 74/91/75 90/108/91 
f 74/91/75 73/90/74 91/109/92 92/110/93 
f 73/90/74 75/92/76 93/111/94 91/109/92 
f 75/92/76 76/93/77 94/112/95 93/111/94 
f 76/93/77 77/94/78 95/113/96 94/112/95 
f 77/96/78 78/95/79 96/114/97 95/115/96 
f 78/95/79 79/97/80 97/116/98 96/114/97 
f 79/97/80 80/98/81 98/117/99 97/116/98 
f 80/98/81 81/99/82 99/118/100 98/117/99 
f 81/99/82 82/100/83 100/119/101 99/118/100 
f 82/100/83 83/101/84 101/120/102 100/119/101 
f 83/101/84 84/102/85 102/121/103 101/120/102 
f 84/102/85 85/103/86 103/122/104 102/121/103 
f 85/103/86 86/104/87 104/123/105 103/122/104 
f 86/104/87 87/105/88 105/124/106 104/123/105 
f 87/105/88 88/106/89 106/125/107 105/124/106 
f 88/106/89 89/107/90 107/126/108 106/125/107 
f 89/107/90 90/108/91 108/127/109 107/126/108 
f 90/108/91 74/91/75 92/110/93 108/127/109 
s 1
f 109/110/110 110/109/110 111/111/111 112/128/112 
f 111/111/111 113/112/113 114/113/112 115/129/110 
f 114/113/112 116/130/112 115/129/110 
f 115/129/110 117/131/111 118/132/111 119/133/110 
f 118/132/111 120/134/111 119/133/110 
f 119/133/110 121/135/113 122/136/110 123/137/112 
f 122/136/110 124/138/111 123/137/112 
f 115/129/110 119/133/110 123/137/112 111/111/111 
f 123/137/112 125/139/112 112/128/112 111/111/111 
f 126/127/112 109/110/110 112/128/112 
s off
f 92/110/111 91/109/111 127/109/111 128/110/111 
f 91/109/111 93/111/111 129/111/111 127/109/111 
f 93/111/111 94/112/111 130/112/111 129/111/111 
f 94/112/112 95/113/112 131/113/112 130/112/112 
f 95/115/112 96/114/112 132/130/112 131/113/112 
f 96/114/110 97/116/110 133/129/110 132/130/110 
f 97/116/110 98/117/110 134/131/110 133/129/110 
f 98/117/113 99/118/113 135/132/113 134/131/113 
f 99/118/110 100/119/110 136/134/110 135/132/110 
f 100/119/111 101/120/111 137/133/111 136/134/111 
f 101/120/111 102/121/111 138/135/111 137/133/111 
f 102/121/112 103/122/112 139/136/112 138/135/112 
f 103/122/111 104/123/111 140/138/111 139/136/111 
f 104/123/111 105/124/111 141/137/111 140/138/111 
f 105/124/113 106/125/113 142/139/113 141/137/113 
f 106/125/111 107/126/111 143/128/111 142/139/111 
f 107/126/111 108/127/111 144/127/111 143/128/111 
f 108/127/110 92/110/110 128/110/110 144/127/110 
f 128/110/114 127/109/114 110/109/114 109/110/114 
f 127/109/115 129/111/115 111/111/115 110/109/115 
f 129/111/116 130/112/116 113/112/116 111/111/116 
f 130/112/117 131/113/117 114/113/117 113/112/117 
f 131/113/118 132/130/118 116/130/118 114/113/118 
f 132/130/119 133/129/119 115/129/119 116/130/119 
f 133/129/120 134/131/120 117/131/120 115/129/120 
f 134/131/121 135/132/121 118/132/121 117/131/121 
f 135/132/122 136/134/122 120/134/122 118/132/122 
f 136/134/123 137/133/123 119/133/123 120/134/123 
f 137/133/124 138/135/124 121/135/124 119/133/124 
f 138/135/125 139/136/125 122/136/125 121/135/125 
f 139/136/126 140/138/126 124/138/126 122/136/126 
f 140/138/127 141/137/127 123/137/127 124/138/127 
f 141/137/128 142/139/128 125/139/128 123/137/128 
f 142/139/129 143/128/129 112/128/129 125/139/129 
f 143/128/130 144/127/130 126/127/130 112/128/130 
f 144/127/131 128/110/131 109/110/131 126/127/131 
# 138 polygons - 8 triangles

