# 3ds Max Wavefront OBJ Exporter v0.97b - (c)2007 guruware
# File Created: 05.05.2013 11:56:30

mtllib base.mtl

#
# object Box001
#

v  -75.0000 -75.0000 75.0000
v  -75.0000 -75.0000 -75.0000
v  75.0000 -75.0000 -75.0000
v  75.0000 -75.0000 75.0000
v  -75.0000 -70.0000 75.0000
v  75.0000 -70.0000 75.0000
v  75.0000 -70.0000 -75.0000
v  -75.0000 -70.0000 -75.0000
# 8 vertices

vn 0.0000 -1.0000 -0.0000
vn 0.0000 1.0000 -0.0000
vn 0.0000 0.0000 1.0000
vn 1.0000 0.0000 -0.0000
vn 0.0000 0.0000 -1.0000
vn -1.0000 0.0000 -0.0000
# 6 vertex normals

vt 1.0000 0.0000 0.0000
vt 1.0000 1.0000 0.0000
vt 0.0000 1.0000 0.0000
vt 0.0000 0.0000 0.0000
# 4 texture coords

g Box001
usemtl 02___Default
s 2
f 1/1/1 2/2/1 3/3/1 4/4/1 
s 4
f 5/4/2 6/1/2 7/2/2 8/3/2 
s 8
f 1/4/3 4/1/3 6/2/3 5/3/3 
s 16
f 4/4/4 3/1/4 7/2/4 6/3/4 
s 32
f 3/4/5 2/1/5 8/2/5 7/3/5 
s 64
f 2/4/6 1/1/6 5/2/6 8/3/6 
# 6 polygons

#
# object Line001
#

v  75.0378 -74.6657 -75.1091
v  74.9389 -74.6710 -65.1091
v  -74.8756 -74.6710 -65.1091
v  -74.9782 -74.6657 -75.1091
v  75.0378 -6.4293 -75.1091
v  74.9389 -3.8658 -65.1091
v  69.8590 3.0079 -75.1091
v  69.1305 8.1485 -65.1091
v  63.9902 12.0230 -75.1091
v  63.4215 18.1025 -65.1091
v  56.7415 20.1939 -75.1091
v  55.9915 27.6089 -65.1091
v  47.4229 27.0984 -75.1091
v  46.2271 35.8210 -65.1091
v  35.3444 32.3146 -75.1091
v  33.7981 41.9135 -65.1091
v  19.8161 35.4202 -75.1091
v  18.4773 45.3914 -65.1091
v  0.1479 35.9932 -75.1091
v  -0.1291 46.0067 -65.1091
v  -19.5203 34.1699 -75.1091
v  -18.5865 44.0645 -65.1091
v  -35.0489 30.5660 -75.1091
v  -33.5840 40.1138 -65.1091
v  -47.1277 25.4783 -75.1091
v  -45.7096 34.3165 -65.1091
v  -56.4467 19.2034 -75.1091
v  -55.3158 26.9746 -65.1091
v  -63.6959 12.0383 -75.1091
v  -62.7405 18.6448 -65.1091
v  -69.5652 4.2796 -75.1091
v  -68.4963 10.0085 -65.1091
v  -74.7446 -3.7759 -75.1091
v  -74.6321 -0.8234 -65.1091
# 34 vertices

vn 0.0000 -1.0000 -0.0005
vn 1.0000 -0.0000 0.0099
vn 0.8606 0.4814 -0.1659
vn 0.8530 0.4802 -0.2044
vn 0.8804 0.4548 -0.1346
vn 0.8710 0.4780 -0.1139
vn 0.7887 0.5522 -0.2702
vn 0.7649 0.5597 -0.3188
vn 0.6527 0.6413 -0.4033
vn 0.6094 0.6481 -0.4567
vn 0.4586 0.7064 -0.5392
vn 0.4127 0.7024 -0.5799
vn 0.2570 0.7243 -0.6398
vn 0.2279 0.7157 -0.6602
vn 0.0945 0.7150 -0.6927
vn 0.0831 0.7106 -0.6987
vn -0.0216 0.7067 -0.7072
vn -0.0227 0.7079 -0.7060
vn -0.1230 0.7096 -0.6937
vn -0.1194 0.7148 -0.6891
vn -0.2513 0.7151 -0.6523
vn -0.2428 0.7239 -0.6458
vn -0.4151 0.7057 -0.5742
vn -0.4036 0.7184 -0.5665
vn -0.5890 0.6639 -0.4607
vn -0.5816 0.6779 -0.4498
vn -0.7285 0.5967 -0.3365
vn -0.7319 0.6028 -0.3177
vn -0.8090 0.5394 -0.2337
vn -0.8232 0.5294 -0.2052
vn -0.8448 0.5070 -0.1710
vn -0.8622 0.4884 -0.1345
vn -0.9999 0.0033 0.0103
vn -0.0000 -0.0000 1.0000
vn 0.0000 -0.0000 1.0000
vn 0.0000 0.0000 1.0000
vn 0.0000 0.0000 -1.0000
# 37 vertex normals

g Line001
usemtl 02___Default
s 2
f 9//7 10//7 11//7 12//7 
s 4
f 13//8 14//8 10//8 9//8 
s 8
f 15//9 16//10 14//11 13//12 
f 17//13 18//14 16//10 15//9 
f 19//15 20//16 18//14 17//13 
f 21//17 22//18 20//16 19//15 
f 23//19 24//20 22//18 21//17 
f 25//21 26//22 24//20 23//19 
f 27//23 28//24 26//22 25//21 
f 29//25 30//26 28//24 27//23 
f 31//27 32//28 30//26 29//25 
f 33//29 34//30 32//28 31//27 
f 35//31 36//32 34//30 33//29 
f 37//33 38//34 36//32 35//31 
f 39//35 40//36 38//34 37//33 
f 41//37 42//38 40//36 39//35 
s 17
f 12//39 11//39 42//39 41//39 
s 1024
f 42//40 11//41 10//40 14//40 
f 18//40 20//40 22//40 16//40 
f 16//40 22//40 24//40 26//40 
f 16//40 26//40 28//40 30//40 
f 16//40 30//40 32//40 34//40 
f 16//40 34//40 36//40 38//42 
f 16//40 38//42 40//41 14//40 
f 42//40 14//40 40//41 
f 21//43 19//43 17//43 23//43 
f 23//43 17//43 15//43 25//43 
f 27//43 25//43 15//43 29//43 
f 31//43 29//43 15//43 33//43 
f 35//43 33//43 15//43 37//43 
f 39//43 37//43 15//43 13//43 
f 41//43 39//43 13//43 9//43 
f 41//43 9//43 12//43 
# 31 polygons - 2 triangles

#
# object Line002
#

v  75.0378 -74.6657 75.0382
v  74.9389 -74.6710 65.0382
v  -74.8756 -74.6710 65.0381
v  -74.9782 -74.6657 75.0381
v  75.0378 -6.4293 75.0382
v  74.9389 -3.8658 65.0382
v  69.8590 3.0079 75.0382
v  69.1305 8.1485 65.0382
v  63.9902 12.0230 75.0382
v  63.4215 18.1025 65.0381
v  56.7415 20.1939 75.0381
v  55.9915 27.6089 65.0381
v  47.4229 27.0984 75.0381
v  46.2271 35.8210 65.0381
v  35.3444 32.3146 75.0381
v  33.7981 41.9135 65.0381
v  19.8161 35.4202 75.0381
v  18.4773 45.3914 65.0381
v  0.1479 35.9932 75.0381
v  -0.1291 46.0067 65.0381
v  -19.5203 34.1699 75.0381
v  -18.5865 44.0645 65.0381
v  -35.0489 30.5660 75.0381
v  -33.5840 40.1138 65.0381
v  -47.1277 25.4783 75.0381
v  -45.7096 34.3165 65.0381
v  -56.4467 19.2034 75.0381
v  -55.3158 26.9746 65.0381
v  -63.6959 12.0383 75.0381
v  -62.7405 18.6448 65.0381
v  -69.5652 4.2796 75.0381
v  -68.4963 10.0085 65.0381
v  -74.7446 -3.7759 75.0381
v  -74.6321 -0.8234 65.0381
# 34 vertices

vn -0.0000 -1.0000 0.0005
vn 1.0000 -0.0000 -0.0099
vn 0.8606 0.4814 0.1659
vn 0.8530 0.4802 0.2044
vn 0.8804 0.4548 0.1346
vn 0.8710 0.4780 0.1139
vn 0.7887 0.5522 0.2702
vn 0.7649 0.5597 0.3188
vn 0.6527 0.6413 0.4033
vn 0.6094 0.6481 0.4567
vn 0.4586 0.7064 0.5392
vn 0.4127 0.7024 0.5799
vn 0.2570 0.7243 0.6398
vn 0.2279 0.7157 0.6602
vn 0.0945 0.7150 0.6927
vn 0.0831 0.7106 0.6987
vn -0.0216 0.7067 0.7072
vn -0.0227 0.7079 0.7060
vn -0.1230 0.7096 0.6937
vn -0.1194 0.7148 0.6891
vn -0.2513 0.7151 0.6523
vn -0.2428 0.7239 0.6458
vn -0.4151 0.7057 0.5742
vn -0.4036 0.7184 0.5665
vn -0.5890 0.6639 0.4607
vn -0.5816 0.6779 0.4498
vn -0.7285 0.5967 0.3365
vn -0.7319 0.6028 0.3177
vn -0.8090 0.5394 0.2337
vn -0.8232 0.5294 0.2052
vn -0.8448 0.5070 0.1710
vn -0.8622 0.4884 0.1345
vn -0.9999 0.0033 -0.0103
vn 0.0000 -0.0000 -1.0000
vn -0.0000 -0.0000 -1.0000
vn 0.0000 0.0000 -1.0000
vn -0.0000 0.0000 1.0000
vn -0.0000 -0.0000 1.0000
# 38 vertex normals

g Line002
usemtl 02___Default
s 2
f 46//44 45//44 44//44 43//44 
s 4
f 43//45 44//45 48//45 47//45 
s 8
f 47//49 48//48 50//47 49//46 
f 49//46 50//47 52//51 51//50 
f 51//50 52//51 54//53 53//52 
f 53//52 54//53 56//55 55//54 
f 55//54 56//55 58//57 57//56 
f 57//56 58//57 60//59 59//58 
f 59//58 60//59 62//61 61//60 
f 61//60 62//61 64//63 63//62 
f 63//62 64//63 66//65 65//64 
f 65//64 66//65 68//67 67//66 
f 67//66 68//67 70//69 69//68 
f 69//68 70//69 72//71 71//70 
f 71//70 72//71 74//73 73//72 
f 73//72 74//73 76//75 75//74 
s 17
f 75//76 76//76 45//76 46//76 
s 1024
f 48//77 44//77 45//77 76//77 
f 50//77 56//77 54//78 52//77 
f 60//77 58//77 56//77 50//77 
f 64//79 62//77 60//77 50//77 
f 68//79 66//79 64//79 50//77 
f 72//79 70//79 68//79 50//77 
f 48//77 74//79 72//79 50//77 
f 74//79 48//77 76//77 
f 57//80 51//80 53//80 55//80 
f 59//80 49//80 51//80 57//80 
f 63//80 49//80 59//80 61//80 
f 67//81 49//80 63//80 65//81 
f 71//81 49//80 67//81 69//81 
f 47//80 49//80 71//81 73//81 
f 43//80 47//80 73//81 75//81 
f 46//80 43//80 75//81 
# 31 polygons - 2 triangles

#
# object Cylinder002
#

v  14.5795 -0.3711 80.0968
v  13.3734 -7.2115 80.0968
v  13.3734 -7.2115 -79.9032
v  14.5795 -0.3711 -79.9032
v  9.9004 -13.2269 80.0968
v  9.9004 -13.2269 -79.9032
v  4.5795 -17.6916 80.0968
v  4.5795 -17.6916 -79.9032
v  -1.9475 -20.0673 80.0968
v  -1.9475 -20.0673 -79.9032
v  -8.8935 -20.0673 80.0968
v  -8.8935 -20.0673 -79.9032
v  -15.4205 -17.6916 80.0968
v  -15.4205 -17.6916 -79.9032
v  -20.7414 -13.2269 80.0968
v  -20.7414 -13.2269 -79.9032
v  -24.2144 -7.2115 80.0968
v  -24.2144 -7.2115 -79.9032
v  -25.4205 -0.3711 80.0968
v  -25.4205 -0.3711 -79.9032
v  -24.2144 6.4693 80.0968
v  -24.2144 6.4693 -79.9032
v  -20.7414 12.4846 80.0968
v  -20.7414 12.4846 -79.9032
v  -15.4205 16.9494 80.0968
v  -15.4205 16.9494 -79.9032
v  -8.8935 19.3250 80.0968
v  -8.8935 19.3250 -79.9032
v  -1.9475 19.3250 80.0968
v  -1.9475 19.3250 -79.9032
v  4.5795 16.9494 80.0968
v  4.5795 16.9494 -79.9032
v  9.9004 12.4846 80.0968
v  9.9004 12.4846 -79.9032
v  13.3733 6.4693 80.0968
v  13.3733 6.4693 -79.9032
v  2.0473 5.8951 80.0968
v  -0.5462 8.0713 80.0968
v  -3.7277 9.2293 80.0968
v  4.3280 -0.3711 80.0968
v  -7.1133 9.2293 80.0968
v  -10.2948 8.0713 80.0968
v  -14.5811 2.9631 80.0968
v  -12.8883 5.8951 80.0968
v  -15.1690 -0.3711 80.0968
v  -14.5811 -3.7053 80.0968
v  -10.2948 -8.8136 80.0968
v  -12.8883 -6.6374 80.0968
v  -7.1133 -9.9716 80.0968
v  -3.7277 -9.9716 80.0968
v  2.0473 -6.6374 80.0968
v  -0.5462 -8.8136 80.0968
v  3.7401 -3.7053 80.0968
v  3.7401 2.9631 80.0968
v  5.1630 -4.2232 -80.7414
v  3.2073 -7.6107 -80.7414
v  0.2109 -10.1250 -80.7414
v  5.1630 3.4810 -80.7414
v  -3.4647 -11.4628 -80.7414
v  -7.3763 -11.4628 -80.7414
v  -14.0483 -7.6107 -80.7414
v  -11.0519 -10.1250 -80.7414
v  -16.0040 -4.2232 -80.7414
v  -16.6833 -0.3711 -80.7414
v  -14.0483 6.8685 -80.7414
v  -16.0040 3.4810 -80.7414
v  -11.0519 9.3827 -80.7414
v  -7.3763 10.7205 -80.7414
v  0.2109 9.3827 -80.7414
v  -3.4647 10.7205 -80.7414
v  3.2073 6.8685 -80.7414
v  5.8423 -0.3711 -80.7414
v  11.3430 -6.4725 -79.9032
v  12.4188 -0.3711 -79.9032
v  8.2452 -11.8380 -79.9032
v  3.4992 -15.8204 -79.9032
v  -2.3227 -17.9394 -79.9032
v  -8.5183 -17.9394 -79.9032
v  -14.3402 -15.8204 -79.9032
v  -19.0862 -11.8380 -79.9032
v  -22.1840 -6.4725 -79.9032
v  -23.2598 -0.3711 -79.9032
v  -22.1840 5.7303 -79.9032
v  -19.0862 11.0958 -79.9032
v  -14.3402 15.0782 -79.9032
v  -8.5183 17.1972 -79.9032
v  -2.3227 17.1972 -79.9032
v  3.4991 15.0782 -79.9032
v  8.2452 11.0958 -79.9032
v  11.3430 5.7303 -79.9032
v  11.3430 -6.4725 -76.8297
v  12.4188 -0.3711 -76.8297
v  8.2452 -11.8380 -76.8297
v  3.4992 -15.8204 -76.8297
v  -2.3227 -17.9394 -76.8297
v  -8.5183 -17.9394 -76.8297
v  -14.3402 -15.8204 -76.8297
v  -19.0862 -11.8380 -76.8297
v  -22.1840 -6.4725 -76.8297
v  -23.2598 -0.3711 -76.8297
v  -22.1840 5.7303 -76.8297
v  -19.0862 11.0958 -76.8297
v  -14.3402 15.0782 -76.8297
v  -8.5183 17.1972 -76.8297
v  -2.3227 17.1972 -76.8297
v  3.4991 15.0782 -76.8297
v  8.2452 11.0958 -76.8297
v  11.3430 5.7303 -76.8297
v  8.3623 -5.3876 -76.8297
v  9.2468 -0.3711 -76.8297
v  5.8153 -9.7991 -76.8297
v  1.9132 -13.0734 -76.8297
v  -2.8735 -14.8156 -76.8297
v  -7.9675 -14.8156 -76.8297
v  -12.7542 -13.0734 -76.8297
v  -16.6563 -9.7991 -76.8297
v  -19.2033 -5.3876 -76.8297
v  -20.0878 -0.3711 -76.8297
v  -19.2033 4.6454 -76.8297
v  -16.6563 9.0569 -76.8297
v  -12.7542 12.3312 -76.8297
v  -7.9675 14.0734 -76.8297
v  -2.8736 14.0734 -76.8297
v  1.9131 12.3312 -76.8297
v  5.8153 9.0569 -76.8297
v  8.3623 4.6454 -76.8297
v  12.2921 -0.3711 80.0968
v  11.2239 -6.4292 80.0968
v  11.2239 5.6870 80.0968
v  8.1482 11.0143 80.0968
v  3.4358 14.9685 80.0968
v  -2.3447 17.0724 80.0968
v  -8.4963 17.0724 80.0968
v  -14.2768 14.9685 80.0968
v  -18.9892 11.0143 80.0968
v  -22.0649 5.6869 80.0968
v  -23.1331 -0.3711 80.0968
v  -22.0649 -6.4292 80.0968
v  -18.9892 -11.7566 80.0968
v  -14.2768 -15.7107 80.0968
v  -8.4963 -17.8147 80.0968
v  -2.3447 -17.8147 80.0968
v  3.4358 -15.7107 80.0968
v  8.1482 -11.7566 80.0968
v  12.2921 -0.3711 75.3470
v  11.2239 -6.4292 75.3470
v  11.2239 5.6870 75.3470
v  8.1482 11.0143 75.3470
v  3.4358 14.9685 75.3470
v  -2.3447 17.0724 75.3470
v  -8.4963 17.0724 75.3470
v  -14.2768 14.9685 75.3470
v  -18.9892 11.0143 75.3470
v  -22.0649 5.6869 75.3470
v  -23.1331 -0.3711 75.3470
v  -22.0649 -6.4292 75.3470
v  -18.9892 -11.7566 75.3470
v  -14.2768 -15.7107 75.3470
v  -8.4963 -17.8147 75.3470
v  -2.3447 -17.8147 75.3470
v  3.4358 -15.7107 75.3470
v  8.1482 -11.7566 75.3470
v  10.2860 -0.3711 75.3470
v  9.3388 -5.7431 75.3470
v  9.3388 5.0008 75.3470
v  6.6114 9.7248 75.3470
v  2.4327 13.2311 75.3470
v  -2.6931 15.0967 75.3470
v  -8.1479 15.0967 75.3470
v  -13.2737 13.2311 75.3470
v  -17.4524 9.7248 75.3470
v  -20.1798 5.0008 75.3470
v  -21.1270 -0.3711 75.3470
v  -20.1798 -5.7431 75.3470
v  -17.4524 -10.4671 75.3470
v  -13.2737 -13.9734 75.3470
v  -8.1479 -15.8390 75.3470
v  -2.6931 -15.8390 75.3470
v  2.4327 -13.9734 75.3470
v  6.6114 -10.4671 75.3470
# 180 vertices

vn 1.0000 0.0000 0.0000
vn 0.9397 -0.3420 -0.0000
vn 0.7660 -0.6428 -0.0000
vn 0.5000 -0.8660 -0.0000
vn 0.1736 -0.9848 -0.0000
vn -0.1736 -0.9848 -0.0000
vn -0.5000 -0.8660 -0.0000
vn -0.7660 -0.6428 -0.0000
vn -0.9397 -0.3420 -0.0000
vn -1.0000 -0.0000 -0.0000
vn -0.9397 0.3420 0.0000
vn -0.7660 0.6428 0.0000
vn -0.5000 0.8660 0.0000
vn -0.1736 0.9848 0.0000
vn 0.1736 0.9848 0.0000
vn 0.5000 0.8660 0.0000
vn 0.7660 0.6428 0.0000
vn 0.9397 0.3420 0.0000
vn 0.0000 -0.0000 1.0000
vn 0.0000 0.0000 -1.0000
vn -0.9848 0.1736 0.0000
vn -0.8660 0.5000 0.0000
vn -0.6428 0.7660 0.0000
vn -0.3420 0.9397 0.0000
vn 0.0000 1.0000 0.0000
vn 0.3420 0.9397 0.0000
vn 0.6428 0.7660 0.0000
vn 0.8660 0.5000 0.0000
vn 0.9848 0.1736 0.0000
vn 0.9848 -0.1736 -0.0000
vn 0.8660 -0.5000 -0.0000
vn 0.6428 -0.7660 -0.0000
vn 0.3420 -0.9397 -0.0000
vn 0.0000 -1.0000 -0.0000
vn -0.3420 -0.9397 -0.0000
vn -0.6428 -0.7660 -0.0000
vn -0.8660 -0.5000 -0.0000
vn -0.9848 -0.1736 -0.0000
vn 0.7477 -0.1318 -0.6508
vn 0.6575 -0.3796 -0.6508
vn 0.4880 -0.5816 -0.6508
vn 0.2597 -0.7135 -0.6508
vn 0.0000 -0.7593 -0.6508
vn -0.2597 -0.7135 -0.6508
vn -0.4880 -0.5816 -0.6508
vn -0.6575 -0.3796 -0.6508
vn -0.7477 -0.1318 -0.6508
vn -0.7477 0.1318 -0.6508
vn -0.6575 0.3796 -0.6508
vn -0.4880 0.5816 -0.6508
vn -0.2597 0.7135 -0.6508
vn -0.0000 0.7593 -0.6508
vn 0.2597 0.7135 -0.6508
vn 0.4880 0.5816 -0.6508
vn 0.6575 0.3796 -0.6508
vn 0.7477 0.1318 -0.6508
vn 0.6196 -0.1093 0.7772
vn 0.6196 0.1093 0.7772
vn 0.5449 0.3146 0.7772
vn 0.4044 0.4820 0.7772
vn 0.2152 0.5913 0.7772
vn -0.0000 0.6292 0.7772
vn -0.2152 0.5913 0.7772
vn -0.4044 0.4820 0.7772
vn -0.5449 0.3146 0.7772
vn -0.6196 0.1093 0.7772
vn -0.6196 -0.1093 0.7772
vn -0.5449 -0.3146 0.7772
vn -0.4044 -0.4820 0.7772
vn -0.2152 -0.5913 0.7772
vn 0.0000 -0.6292 0.7772
vn 0.2152 -0.5913 0.7772
vn 0.4044 -0.4820 0.7772
vn 0.5449 -0.3146 0.7772
# 74 vertex normals

vt 0.7500 0.0000 1.0000
vt 0.6944 0.0000 1.0000
vt 0.6944 1.0000 1.0000
vt 0.7500 1.0000 1.0000
vt 0.6389 0.0000 1.0000
vt 0.6389 1.0000 1.0000
vt 0.5833 0.0000 1.0000
vt 0.5833 1.0000 1.0000
vt 0.5278 0.0000 1.0000
vt 0.5278 1.0000 1.0000
vt 0.4722 0.0000 1.0000
vt 0.4722 1.0000 1.0000
vt 0.4167 0.0000 1.0000
vt 0.4167 1.0000 1.0000
vt 0.3611 0.0000 1.0000
vt 0.3611 1.0000 1.0000
vt 0.3056 0.0000 1.0000
vt 0.3056 1.0000 1.0000
vt 0.2500 0.0000 1.0000
vt 0.2500 1.0000 1.0000
vt 0.1944 0.0000 1.0000
vt 0.1944 1.0000 1.0000
vt 0.1389 0.0000 1.0000
vt 0.1389 1.0000 1.0000
vt 0.0833 0.0000 1.0000
vt 0.0833 1.0000 1.0000
vt 0.0278 0.0000 1.0000
vt 0.0278 1.0000 1.0000
vt -0.0278 0.0000 1.0000
vt -0.0278 1.0000 1.0000
vt 0.9722 0.0000 1.0000
vt 0.9167 0.0000 1.0000
vt 0.9167 1.0000 1.0000
vt 0.9722 1.0000 1.0000
vt 0.8611 0.0000 1.0000
vt 0.8611 1.0000 1.0000
vt 0.8056 0.0000 1.0000
vt 0.8056 1.0000 1.0000
vt 0.1786 0.8830 -0.2500
vt 0.0670 0.7500 -0.2500
vt 0.0076 0.5868 -0.2500
vt 0.5000 1.0000 -0.2500
vt 0.0076 0.4132 -0.2500
vt 0.0670 0.2500 -0.2500
vt 0.3290 0.0302 -0.2500
vt 0.1786 0.1170 -0.2500
vt 0.5000 0.0000 -0.2500
vt 0.6710 0.0302 -0.2500
vt 0.9330 0.2500 -0.2500
vt 0.8214 0.1170 -0.2500
vt 0.9924 0.4132 -0.2500
vt 0.9924 0.5868 -0.2500
vt 0.8214 0.8830 -0.2500
vt 0.9330 0.7500 -0.2500
vt 0.6710 0.9698 -0.2500
vt 0.3290 0.9698 -0.2500
vt 0.6710 0.9698 0.2500
vt 0.8214 0.8830 0.2500
vt 0.9330 0.7500 0.2500
vt 0.3290 0.9698 0.2500
vt 0.9924 0.5868 0.2500
vt 0.9924 0.4132 0.2500
vt 0.8214 0.1170 0.2500
vt 0.9330 0.2500 0.2500
vt 0.6710 0.0302 0.2500
vt 0.5000 0.0000 0.2500
vt 0.1786 0.1170 0.2500
vt 0.3290 0.0302 0.2500
vt 0.0670 0.2500 0.2500
vt 0.0076 0.4132 0.2500
vt 0.0670 0.7500 0.2500
vt 0.0076 0.5868 0.2500
vt 0.1786 0.8830 0.2500
vt 0.5000 1.0000 0.2500
# 74 texture coords

g Cylinder002
usemtl 03___Default
s 8
f 77/5/82 78/6/83 79/7/83 80/8/82 
f 78/6/83 81/9/84 82/10/84 79/7/83 
f 81/9/84 83/11/85 84/12/85 82/10/84 
f 83/11/85 85/13/86 86/14/86 84/12/85 
f 85/13/86 87/15/87 88/16/87 86/14/86 
f 87/15/87 89/17/88 90/18/88 88/16/87 
f 89/17/88 91/19/89 92/20/89 90/18/88 
f 91/19/89 93/21/90 94/22/90 92/20/89 
f 93/21/90 95/23/91 96/24/91 94/22/90 
f 95/23/91 97/25/92 98/26/92 96/24/91 
f 97/25/92 99/27/93 100/28/93 98/26/92 
f 99/27/93 101/29/94 102/30/94 100/28/93 
f 101/29/94 103/31/95 104/32/95 102/30/94 
f 103/31/95 105/33/96 106/34/96 104/32/95 
f 105/35/96 107/36/97 108/37/97 106/38/96 
f 107/36/97 109/39/98 110/40/98 108/37/97 
f 109/39/98 111/41/99 112/42/99 110/40/98 
f 111/41/99 77/5/82 80/8/82 112/42/99 
s 1
f 113/43/100 114/44/100 115/45/100 116/46/100 
f 115/45/100 117/47/100 118/48/100 119/49/100 
f 118/48/100 120/50/100 119/49/100 
f 119/49/100 121/51/100 122/52/100 123/53/100 
f 122/52/100 124/54/100 123/53/100 
f 123/53/100 125/55/100 126/56/100 127/57/100 
f 126/56/100 128/58/100 127/57/100 
f 119/49/100 123/53/100 127/57/100 115/45/100 
f 127/57/100 129/59/100 116/46/100 115/45/100 
f 130/60/100 113/43/100 116/46/100 
f 131/61/101 132/62/101 133/63/101 134/64/101 
f 133/63/101 135/65/101 136/66/101 137/67/101 
f 136/66/101 138/68/101 137/67/101 
f 137/67/101 139/69/101 140/70/101 141/71/101 
f 140/70/101 142/72/101 141/71/101 
f 141/71/101 143/73/101 144/74/101 145/75/101 
f 144/74/101 146/76/101 145/75/101 
f 137/67/101 141/71/101 145/75/101 133/63/101 
f 145/75/101 147/77/101 134/64/101 133/63/101 
f 148/78/101 131/61/101 134/64/101 
s off
f 80/8/101 79/7/101 149/61/101 150/78/101 
f 79/7/101 82/10/101 151/62/101 149/61/101 
f 82/10/101 84/12/101 152/63/101 151/62/101 
f 84/12/101 86/14/101 153/65/101 152/63/101 
f 86/14/101 88/16/101 154/66/101 153/65/101 
f 88/16/101 90/18/101 155/68/101 154/66/101 
f 90/18/101 92/20/101 156/67/101 155/68/101 
f 92/20/101 94/22/101 157/69/101 156/67/101 
f 94/22/101 96/24/101 158/70/101 157/69/101 
f 96/24/101 98/26/101 159/72/101 158/70/101 
f 98/26/101 100/28/101 160/71/101 159/72/101 
f 100/28/101 102/30/101 161/73/101 160/71/101 
f 102/30/101 104/32/101 162/74/101 161/73/101 
f 104/32/101 106/34/101 163/76/101 162/74/101 
f 106/38/101 108/37/101 164/75/101 163/76/101 
f 108/37/101 110/40/101 165/77/101 164/75/101 
f 110/40/101 112/42/101 166/64/101 165/77/101 
f 112/42/101 80/8/101 150/78/101 166/64/101 
f 150/78/102 149/61/102 167/61/102 168/78/102 
f 149/61/103 151/62/103 169/62/103 167/61/103 
f 151/62/104 152/63/104 170/63/104 169/62/104 
f 152/63/105 153/65/105 171/65/105 170/63/105 
f 153/65/106 154/66/106 172/66/106 171/65/106 
f 154/66/107 155/68/107 173/68/107 172/66/107 
f 155/68/108 156/67/108 174/67/108 173/68/108 
f 156/67/109 157/69/109 175/69/109 174/67/109 
f 157/69/110 158/70/110 176/70/110 175/69/110 
f 158/70/111 159/72/111 177/72/111 176/70/111 
f 159/72/112 160/71/112 178/71/112 177/72/112 
f 160/71/113 161/73/113 179/73/113 178/71/113 
f 161/73/114 162/74/114 180/74/114 179/73/114 
f 162/74/115 163/76/115 181/76/115 180/74/115 
f 163/76/116 164/75/116 182/75/116 181/76/116 
f 164/75/117 165/77/117 183/77/117 182/75/117 
f 165/77/118 166/64/118 184/64/118 183/77/118 
f 166/64/119 150/78/119 168/78/119 184/64/119 
f 168/78/101 167/61/101 185/61/101 186/78/101 
f 167/61/101 169/62/101 187/62/101 185/61/101 
f 169/62/101 170/63/101 188/63/101 187/62/101 
f 170/63/101 171/65/101 189/65/101 188/63/101 
f 171/65/101 172/66/101 190/66/101 189/65/101 
f 172/66/101 173/68/101 191/68/101 190/66/101 
f 173/68/101 174/67/101 192/67/101 191/68/101 
f 174/67/101 175/69/101 193/69/101 192/67/101 
f 175/69/101 176/70/101 194/70/101 193/69/101 
f 176/70/101 177/72/101 195/72/101 194/70/101 
f 177/72/101 178/71/101 196/71/101 195/72/101 
f 178/71/101 179/73/101 197/73/101 196/71/101 
f 179/73/101 180/74/101 198/74/101 197/73/101 
f 180/74/101 181/76/101 199/76/101 198/74/101 
f 181/76/101 182/75/101 200/75/101 199/76/101 
f 182/75/101 183/77/101 201/77/101 200/75/101 
f 183/77/101 184/64/101 202/64/101 201/77/101 
f 184/64/101 168/78/101 186/78/101 202/64/101 
f 186/78/120 185/61/120 131/61/120 148/78/120 
f 185/61/121 187/62/121 132/62/121 131/61/121 
f 187/62/122 188/63/122 133/63/122 132/62/122 
f 188/63/123 189/65/123 135/65/123 133/63/123 
f 189/65/124 190/66/124 136/66/124 135/65/124 
f 190/66/125 191/68/125 138/68/125 136/66/125 
f 191/68/126 192/67/126 137/67/126 138/68/126 
f 192/67/127 193/69/127 139/69/127 137/67/127 
f 193/69/128 194/70/128 140/70/128 139/69/128 
f 194/70/129 195/72/129 142/72/129 140/70/129 
f 195/72/130 196/71/130 141/71/130 142/72/130 
f 196/71/131 197/73/131 143/73/131 141/71/131 
f 197/73/132 198/74/132 144/74/132 143/73/132 
f 198/74/133 199/76/133 146/76/133 144/74/133 
f 199/76/134 200/75/134 145/75/134 146/76/134 
f 200/75/135 201/77/135 147/77/135 145/75/135 
f 201/77/136 202/64/136 134/64/136 147/77/136 
f 202/64/137 186/78/137 148/78/137 134/64/137 
f 78/6/100 77/5/100 203/46/100 204/59/100 
f 77/5/100 111/41/100 205/60/100 203/46/100 
f 111/41/100 109/39/100 206/43/100 205/60/100 
f 109/39/100 107/36/100 207/44/100 206/43/100 
f 107/36/100 105/35/100 208/45/100 207/44/100 
f 105/33/100 103/31/100 209/47/100 208/45/100 
f 103/31/100 101/29/100 210/48/100 209/47/100 
f 101/29/100 99/27/100 211/50/100 210/48/100 
f 99/27/100 97/25/100 212/49/100 211/50/100 
f 97/25/100 95/23/100 213/51/100 212/49/100 
f 95/23/100 93/21/100 214/52/100 213/51/100 
f 93/21/100 91/19/100 215/54/100 214/52/100 
f 91/19/100 89/17/100 216/53/100 215/54/100 
f 89/17/100 87/15/100 217/55/100 216/53/100 
f 87/15/100 85/13/100 218/56/100 217/55/100 
f 85/13/100 83/11/100 219/58/100 218/56/100 
f 83/11/100 81/9/100 220/57/100 219/58/100 
f 81/9/100 78/6/100 204/59/100 220/57/100 
f 204/59/102 203/46/102 221/46/102 222/59/102 
f 203/46/119 205/60/119 223/60/119 221/46/119 
f 205/60/118 206/43/118 224/43/118 223/60/118 
f 206/43/117 207/44/117 225/44/117 224/43/117 
f 207/44/116 208/45/116 226/45/116 225/44/116 
f 208/45/115 209/47/115 227/47/115 226/45/115 
f 209/47/114 210/48/114 228/48/114 227/47/114 
f 210/48/113 211/50/113 229/50/113 228/48/113 
f 211/50/112 212/49/112 230/49/112 229/50/112 
f 212/49/111 213/51/111 231/51/111 230/49/111 
f 213/51/110 214/52/110 232/52/110 231/51/110 
f 214/52/109 215/54/109 233/54/109 232/52/109 
f 215/54/108 216/53/108 234/53/108 233/54/108 
f 216/53/107 217/55/107 235/55/107 234/53/107 
f 217/55/106 218/56/106 236/56/106 235/55/106 
f 218/56/105 219/58/105 237/58/105 236/56/105 
f 219/58/104 220/57/104 238/57/104 237/58/104 
f 220/57/103 204/59/103 222/59/103 238/57/103 
f 222/59/100 221/46/100 239/46/100 240/59/100 
f 221/46/100 223/60/100 241/60/100 239/46/100 
f 223/60/100 224/43/100 242/43/100 241/60/100 
f 224/43/100 225/44/100 243/44/100 242/43/100 
f 225/44/100 226/45/100 244/45/100 243/44/100 
f 226/45/100 227/47/100 245/47/100 244/45/100 
f 227/47/100 228/48/100 246/48/100 245/47/100 
f 228/48/100 229/50/100 247/50/100 246/48/100 
f 229/50/100 230/49/100 248/49/100 247/50/100 
f 230/49/100 231/51/100 249/51/100 248/49/100 
f 231/51/100 232/52/100 250/52/100 249/51/100 
f 232/52/100 233/54/100 251/54/100 250/52/100 
f 233/54/100 234/53/100 252/53/100 251/54/100 
f 234/53/100 235/55/100 253/55/100 252/53/100 
f 235/55/100 236/56/100 254/56/100 253/55/100 
f 236/56/100 237/58/100 255/58/100 254/56/100 
f 237/58/100 238/57/100 256/57/100 255/58/100 
f 238/57/100 222/59/100 240/59/100 256/57/100 
f 240/59/138 239/46/138 116/46/138 129/59/138 
f 239/46/139 241/60/139 130/60/139 116/46/139 
f 241/60/140 242/43/140 113/43/140 130/60/140 
f 242/43/141 243/44/141 114/44/141 113/43/141 
f 243/44/142 244/45/142 115/45/142 114/44/142 
f 244/45/143 245/47/143 117/47/143 115/45/143 
f 245/47/144 246/48/144 118/48/144 117/47/144 
f 246/48/145 247/50/145 120/50/145 118/48/145 
f 247/50/146 248/49/146 119/49/146 120/50/146 
f 248/49/147 249/51/147 121/51/147 119/49/147 
f 249/51/148 250/52/148 122/52/148 121/51/148 
f 250/52/149 251/54/149 124/54/149 122/52/149 
f 251/54/150 252/53/150 123/53/150 124/54/150 
f 252/53/151 253/55/151 125/55/151 123/53/151 
f 253/55/152 254/56/152 126/56/152 125/55/152 
f 254/56/153 255/58/153 128/58/153 126/56/153 
f 255/58/154 256/57/154 127/57/154 128/58/154 
f 256/57/155 240/59/155 129/59/155 127/57/155 
# 174 polygons - 8 triangles

